# miniso_disney_fun_crash_graffiti_mickey_v1
# Front axis +Y; up axis +Z; procedural reference geometry.
mtllib miniso_disney_fun_crash_graffiti_mickey_v1.mtl
o plush_body_collision
usemtl plush_white
v 0.000000000 0.000000000 0.039000000
v 0.005518479 0.000000000 0.038922935
v 0.005484801 0.000653318 0.039019216
v 0.005333212 0.001292932 0.038943168
v 0.005072192 0.001900878 0.038722784
v 0.004724780 0.002468058 0.038480191
v 0.004314211 0.002995133 0.038354904
v 0.003850941 0.003484184 0.038412097
v 0.003331647 0.003928374 0.038600953
v 0.002749991 0.004309493 0.038792475
v 0.002108885 0.004606414 0.038868658
v 0.001423729 0.004807388 0.038798709
v 0.000715251 0.004915457 0.038649799
v 0.000000000 0.004942460 0.038529653
v -0.000712625 0.004897406 0.038507869
v -0.001415516 0.004779657 0.038574907
v -0.002097823 0.004582251 0.038664774
v -0.002744620 0.004301077 0.038716714
v -0.003342164 0.003940774 0.038722804
v -0.003882167 0.003512437 0.038723574
v -0.004359666 0.003026690 0.038759015
v -0.004766530 0.002489866 0.038820211
v -0.005088406 0.001906955 0.038846568
v -0.005310198 0.001287352 0.038775118
v -0.005426304 0.000646350 0.038603062
v -0.005445721 0.000000000 0.038409764
v -0.005385599 -0.000641501 0.038313484
v -0.005257392 -0.001274551 0.038389532
v -0.005057408 -0.001895338 0.038609915
v -0.004770495 -0.002491938 0.038852508
v -0.004384274 -0.003043775 0.038977795
v -0.003901920 -0.003530308 0.038920602
v -0.003342935 -0.003941684 0.038731746
v -0.002732109 -0.004281471 0.038540224
v -0.002086932 -0.004558462 0.038464042
v -0.001414015 -0.004774588 0.038533991
v -0.000715864 -0.004919667 0.038682900
v -0.000000000 -0.004977530 0.038803046
v 0.000718490 -0.004937717 0.038824830
v 0.001422227 -0.004802318 0.038757792
v 0.002097994 -0.004582625 0.038667925
v 0.002737480 -0.004289887 0.038615985
v 0.003332419 -0.003929284 0.038609896
v 0.003870693 -0.003502056 0.038609125
v 0.004338819 -0.003012218 0.038573684
v 0.004728746 -0.002470129 0.038512488
v 0.005041194 -0.001889261 0.038486131
v 0.005280406 -0.001280130 0.038557581
v 0.005444096 -0.000648469 0.038729637
v 0.010955469 0.000000000 0.037965911
v 0.010887860 0.001296898 0.038057199
v 0.010579604 0.002564816 0.037956705
v 0.010053819 0.003767816 0.037711914
v 0.009361605 0.004890170 0.037461273
v 0.008550119 0.005935905 0.037348088
v 0.007637096 0.006909754 0.037428819
v 0.006611893 0.007796140 0.037639301
v 0.005459778 0.008555984 0.037841458
v 0.004186965 0.009145539 0.037915998
v 0.002825749 0.009541473 0.037835562
v 0.001418832 0.009750712 0.037670059
v 0.000000000 0.009797542 0.037527161
v -0.001411553 0.009700684 0.037476786
v -0.002801816 0.009460659 0.037515106
v -0.004150776 0.009066493 0.037588286
v -0.005431919 0.008512325 0.037648367
v -0.006621026 0.007806909 0.037691294
v -0.007701908 0.006968393 0.037746457
v -0.008660658 0.006012646 0.037830936
v -0.009474533 0.004949160 0.037913165
v -0.010110264 0.003788970 0.037923641
v -0.010538726 0.002554906 0.037810044
v -0.010755211 0.001281098 0.037593540
v -0.010785331 0.000000000 0.037376304
v -0.010666944 -0.001270584 0.037285016
v -0.010420396 -0.002526219 0.037385509
v -0.010032061 -0.003759662 0.037630300
v -0.009466480 -0.004944953 0.037880941
v -0.008698017 -0.006038583 0.037994126
v -0.007735971 -0.006999212 0.037913395
v -0.006623067 -0.007809316 0.037702913
v -0.005410622 -0.008478950 0.037500756
v -0.004132879 -0.009027400 0.037426216
v -0.002801184 -0.009458527 0.037506652
v -0.001418911 -0.009751254 0.037672155
v -0.000000000 -0.009872705 0.037815054
v 0.001426191 -0.009801282 0.037865429
v 0.002825117 -0.009539341 0.037827108
v 0.004169068 -0.009106446 0.037753928
v 0.005438481 -0.008522609 0.037693848
v 0.006613934 -0.007798547 0.037650920
v 0.007671159 -0.006940572 0.037595758
v 0.008587478 -0.005961842 0.037511279
v 0.009353552 -0.004885964 0.037429050
v 0.009975616 -0.003738508 0.037418573
v 0.010461274 -0.002536129 0.037532170
v 0.010799594 -0.001286385 0.037748675
v 0.016198809 0.000000000 0.036314001
v 0.016096081 0.001917271 0.036395073
v 0.015634794 0.003790347 0.036286024
v 0.014855168 0.005567192 0.036045680
v 0.013835824 0.007227344 0.035815036
v 0.012644242 0.008778243 0.035728696
v 0.011301408 0.010225083 0.035829319
v 0.009787814 0.011540896 0.036043718
v 0.008081901 0.012665095 0.036235521
v 0.006195848 0.013533520 0.036295443
v 0.004180075 0.014114513 0.036205857
v 0.002098323 0.014420405 0.036038407
v 0.000000000 0.014486496 0.035893850
v -0.002086387 0.014338379 0.035833413
v -0.004139165 0.013976376 0.035851514
v -0.006128821 0.013387113 0.035902796
v -0.008018848 0.012566285 0.035952822
v -0.009777607 0.011528861 0.036006130
v -0.011383228 0.010299111 0.036088715
v -0.012812375 0.008894969 0.036203786
v -0.014024982 0.007326153 0.036304685
v -0.014966481 0.005608908 0.036315778
v -0.015593884 0.003780429 0.036191079
v -0.015905806 0.001894607 0.035964839
v -0.015946599 0.000000000 0.035748603
v -0.015774318 -0.001878945 0.035667530
v -0.015415286 -0.003737131 0.035776579
v -0.014843317 -0.005562750 0.036016923
v -0.014002916 -0.007314627 0.036247568
v -0.012858425 -0.008926939 0.036333908
v -0.011428828 -0.010340368 0.036233285
v -0.009781071 -0.011532945 0.036018886
v -0.007990804 -0.012522337 0.035827083
v -0.006105667 -0.013336538 0.035767160
v -0.004139769 -0.013978416 0.035856747
v -0.002097495 -0.014414719 0.036024197
v -0.000000000 -0.014597445 0.036168753
v 0.002109431 -0.014496745 0.036229190
v 0.004180679 -0.014116553 0.036211089
v 0.006172694 -0.013482945 0.036159807
v 0.008053856 -0.012621146 0.036109782
v 0.009791278 -0.011544981 0.036056473
v 0.011347009 -0.010266341 0.035973888
v 0.012690292 -0.008810213 0.035858817
v 0.013813759 -0.007215817 0.035757919
v 0.014732004 -0.005521034 0.035746826
v 0.015456196 -0.003747049 0.035871525
v 0.015964594 -0.001901609 0.036097765
v 0.021144014 0.000000000 0.034006614
v 0.021003480 0.002501812 0.034072080
v 0.020400470 0.004945690 0.033968184
v 0.019391026 0.007267071 0.033756809
v 0.018075330 0.009441911 0.033568470
v 0.016533703 0.011478494 0.033518103
v 0.014785986 0.013377797 0.033631113
v 0.012805014 0.015098503 0.033830535
v 0.010567547 0.016560334 0.033992265
v 0.008096373 0.017684813 0.034027244
v 0.005460581 0.018438293 0.033932712
v 0.002741498 0.018840529 0.033780506
v 0.000000000 0.018934092 0.033657831
v -0.002727555 0.018744711 0.033608708
v -0.005410006 0.018267521 0.033618433
v -0.008005610 0.017486563 0.033645791
v -0.010467189 0.016403065 0.033669450
v -0.012758009 0.015043079 0.033706349
v -0.014854401 0.013439696 0.033786724
v -0.016726877 0.011612605 0.033909716
v -0.018319701 0.009569562 0.034022302
v -0.019557388 0.007329418 0.034046421
v -0.020382630 0.004941366 0.033938481
v -0.020795654 0.002477057 0.033734942
v -0.020855986 0.000000000 0.033543368
v -0.020637204 -0.002458183 0.033477902
v -0.020168415 -0.004889433 0.033581797
v -0.019411914 -0.007274899 0.033793172
v -0.018297737 -0.009558089 0.033981512
v -0.016787137 -0.011654440 0.034031879
v -0.014912498 -0.013492260 0.033918868
v -0.012762966 -0.015048924 0.033719446
v -0.010432453 -0.016348631 0.033557716
v -0.007976332 -0.017422609 0.033522738
v -0.005409819 -0.018266888 0.033617269
v -0.002740602 -0.018834376 0.033769475
v -0.000000000 -0.019065908 0.033892150
v 0.002754545 -0.018930194 0.033941273
v 0.005460394 -0.018437661 0.033931549
v 0.008067094 -0.017620860 0.033904191
v 0.010532811 -0.016505900 0.033880532
v 0.012809971 -0.015104348 0.033843633
v 0.014844084 -0.013430362 0.033763258
v 0.016593963 -0.011520329 0.033640265
v 0.018053366 -0.009430438 0.033527679
v 0.019245552 -0.007212553 0.033503561
v 0.020186254 -0.004893758 0.033611501
v 0.020845030 -0.002482938 0.033815040
v 0.025700245 0.000000000 0.031100839
v 0.025518236 0.003039583 0.031147051
v 0.024790368 0.006009935 0.031058040
v 0.023584316 0.008838568 0.030891770
v 0.022011927 0.011498250 0.030758296
v 0.020156421 0.013993560 0.030745503
v 0.018032421 0.016315047 0.030860565
v 0.015608771 0.018404438 0.031028189
v 0.012868379 0.020165954 0.031145025
v 0.009850373 0.021516056 0.031149269
v 0.006642045 0.022427644 0.031055635
v 0.003336563 0.022930027 0.030934032
v 0.000000000 0.023067336 0.030853042
v -0.003325738 0.022855631 0.030833668
v -0.006597429 0.022276993 0.030847029
v -0.009756515 0.021311044 0.030852468
v -0.012742462 0.019968631 0.030840271
v -0.015514749 0.018293575 0.030841286
v -0.018052619 0.016333322 0.030895131
v -0.020326446 0.014111599 0.031004851
v -0.022270109 0.011633115 0.031119066
v -0.023790241 0.008915741 0.031161498
v -0.024814786 0.006015854 0.031088631
v -0.025340992 0.003018471 0.030930710
v -0.025435715 0.000000000 0.030780722
v -0.025180248 -0.002999324 0.030734510
v -0.024603176 -0.005964553 0.030823520
v -0.023659150 -0.008866613 0.030989791
v -0.022273113 -0.011634684 0.031123264
v -0.020412464 -0.014171317 0.031136057
v -0.018126164 -0.016399862 0.031020996
v -0.015520829 -0.018300744 0.030853371
v -0.012699601 -0.019901463 0.030736535
v -0.009718512 -0.021228033 0.030732292
v -0.006592916 -0.022261753 0.030825926
v -0.003338019 -0.022940031 0.030947528
v -0.000000000 -0.023198532 0.031028519
v 0.003348844 -0.023014426 0.031047893
v 0.006637531 -0.022412404 0.031034532
v 0.009812369 -0.021433045 0.031029092
v 0.012825518 -0.020098787 0.031041289
v 0.015614851 -0.018411606 0.031040275
v 0.018105966 -0.016381588 0.030986429
v 0.020242438 -0.014053277 0.030876710
v 0.022014932 -0.011499819 0.030762495
v 0.023453226 -0.008789440 0.030720062
v 0.024578758 -0.005958634 0.030792929
v 0.025357493 -0.003020437 0.030950851
v 0.029792844 0.000000000 0.027664784
v 0.029566176 0.003521750 0.027691209
v 0.028733370 0.006965837 0.027622190
v 0.027368085 0.010256591 0.027507073
v 0.025582383 0.013363329 0.027429992
v 0.023452010 0.016281516 0.027449139
v 0.020983301 0.018984891 0.027555235
v 0.018146420 0.021396601 0.027679557
v 0.014939322 0.023411316 0.027744455
v 0.011423064 0.024951267 0.027717769
v 0.007701516 0.026005073 0.027630917
v 0.003872519 0.026613301 0.027549339
v 0.000000000 0.026814903 0.027520558
v -0.003871359 0.026605330 0.027541089
v -0.007683641 0.025944715 0.027566786
v -0.011356342 0.024805526 0.027555869
v -0.014811956 0.023211722 0.027507919
v -0.018006508 0.021231629 0.027466143
v -0.020926460 0.018933464 0.027480592
v -0.023548814 0.016348722 0.027562443
v -0.025804108 0.013479151 0.027667731
v -0.027586007 0.010338260 0.027726102
v -0.028808085 0.006983951 0.027694016
v -0.029459244 0.003509013 0.027591057
v -0.029604125 0.000000000 0.027489545
v -0.029322644 -0.003492742 0.027463120
v -0.028639697 -0.006943128 0.027532139
v -0.027507560 -0.010308861 0.027647256
v -0.025856902 -0.013506728 0.027724337
v -0.023670775 -0.016433393 0.027705190
v -0.021016699 -0.019015109 0.027599094
v -0.018012165 -0.021238299 0.027474772
v -0.014759163 -0.023128989 0.027409874
v -0.011307172 -0.024698126 0.027436560
v -0.007671551 -0.025903893 0.027523412
v -0.003880341 -0.026667061 0.027604990
v -0.000000000 -0.026925213 0.027633771
v 0.003881501 -0.026675031 0.027613240
v 0.007689426 -0.025964250 0.027587543
v 0.011373894 -0.024843866 0.027598460
v 0.014886528 -0.023328583 0.027646410
v 0.018152076 -0.021403271 0.027688186
v 0.021073540 -0.019066536 0.027673737
v 0.023573970 -0.016366187 0.027591886
v 0.025635177 -0.013390907 0.027486598
v 0.027289637 -0.010227191 0.027428227
v 0.028564981 -0.006925015 0.027460313
v 0.029429577 -0.003505479 0.027563272
v 0.033362491 0.000000000 0.023771373
v 0.033090266 0.003941519 0.023780856
v 0.032173150 0.007799744 0.023732615
v 0.030685353 0.011499786 0.023665276
v 0.028728770 0.015006890 0.023636447
v 0.026362967 0.018302443 0.023676822
v 0.023584386 0.021338254 0.023764866
v 0.020370228 0.024018712 0.023842102
v 0.016741548 0.026235572 0.023857306
v 0.012785461 0.027927135 0.023805238
v 0.008619748 0.029105590 0.023729802
v 0.004339638 0.029823506 0.023689267
v 0.000000000 0.030108202 0.023710805
v -0.004354409 0.029925016 0.023769897
v -0.008649106 0.029204721 0.023810623
v -0.012777719 0.027910224 0.023790822
v -0.016642809 0.026080840 0.023716600
v -0.020196674 0.023814074 0.023638969
v -0.023435704 0.021203732 0.023615046
v -0.026348661 0.018292512 0.023663975
v -0.028869160 0.015080225 0.023751952
v -0.030883429 0.011574017 0.023818036
v -0.032292474 0.007828672 0.023820635
v -0.033073021 0.003939465 0.023768462
v -0.033279189 0.000000000 0.023712019
v -0.032981285 -0.003928538 0.023702535
v -0.032197770 -0.007805713 0.023750776
v -0.030883532 -0.011574056 0.023818116
v -0.028984618 -0.015140537 0.023846945
v -0.026507433 -0.018402738 0.023806569
v -0.023538398 -0.021296646 0.023718525
v -0.020198657 -0.023816412 0.023641289
v -0.016579292 -0.025981303 0.023626086
v -0.012717206 -0.027778047 0.023678154
v -0.008628388 -0.029134767 0.023753590
v -0.004358847 -0.029955517 0.023794125
v -0.000000000 -0.030186652 0.023772586
v 0.004344076 -0.029854007 0.023713494
v 0.008599030 -0.029035636 0.023672768
v 0.012724948 -0.027794958 0.023692569
v 0.016678031 -0.026136035 0.023766792
v 0.020372210 -0.024021050 0.023844423
v 0.023687080 -0.021431168 0.023868346
v 0.026521738 -0.018412670 0.023819417
v 0.028844229 -0.015067202 0.023731440
v 0.030685456 -0.011499824 0.023665355
v 0.032078446 -0.007776785 0.023662756
v 0.032998531 -0.003930592 0.023714929
v 0.036362110 0.000000000 0.019494126
v 0.036047058 0.004293715 0.019491979
v 0.035065101 0.008500840 0.019461934
v 0.033487257 0.012549840 0.019432063
v 0.031398170 0.016401290 0.019436962
v 0.028835823 0.020019219 0.019485896
v 0.025786721 0.023330843 0.019550858
v 0.022239857 0.026223209 0.019585721
v 0.018244738 0.028591212 0.019562408
v 0.013916115 0.030396809 0.019495440
v 0.009382297 0.031680426 0.019434243
v 0.004729962 0.032505949 0.019427399
v 0.000000000 0.032884225 0.019485341
v -0.004764738 0.032744941 0.019570234
v -0.009472825 0.031986106 0.019621761
v -0.013990967 0.030560309 0.019600302
v -0.018201113 0.028522848 0.019515633
v -0.022051589 0.026001219 0.019419920
v -0.025548964 0.023115730 0.019370596
v -0.028695299 0.019921660 0.019390937
v -0.031430838 0.016418355 0.019457186
v -0.033639204 0.012606785 0.019520236
v -0.035212330 0.008536533 0.019543650
v -0.036114274 0.004301722 0.019528326
v -0.036384024 0.000000000 0.019505874
v -0.036076723 -0.004297249 0.019508021
v -0.035202268 -0.008534094 0.019538066
v -0.033721407 -0.012637591 0.019567937
v -0.031601830 -0.016507675 0.019563038
v -0.028877566 -0.020048199 0.019514104
v -0.025652563 -0.023209462 0.019449142
v -0.022045183 -0.025993666 0.019414279
v -0.018128329 -0.028408788 0.019437592
v -0.013922625 -0.030411030 0.019504560
v -0.009445788 -0.031894813 0.019565757
v -0.004765314 -0.032748901 0.019572601
v -0.000000000 -0.032933705 0.019514659
v 0.004730538 -0.032509908 0.019429766
v 0.009355260 -0.031589133 0.019378239
v 0.013847773 -0.030247530 0.019399698
v 0.018171954 -0.028477152 0.019484367
v 0.022233452 -0.026215656 0.019580080
v 0.025890320 -0.023424575 0.019629404
v 0.029018089 -0.020145757 0.019609063
v 0.031569162 -0.016490610 0.019542814
v 0.033569460 -0.012580647 0.019479764
v 0.035055040 -0.008498401 0.019456350
v 0.036009506 -0.004289242 0.019471674
v 0.038753227 0.000000000 0.014905533
v 0.038401929 0.004574214 0.014897868
v 0.037372165 0.009060142 0.014881411
v 0.035730642 0.013390582 0.014875278
v 0.033542290 0.017521303 0.014897099
v 0.030822204 0.021398261 0.014942961
v 0.027548204 0.024924566 0.014984696
v 0.023723680 0.027972796 0.014989065
v 0.019427881 0.030445308 0.014944971
v 0.014801573 0.032330905 0.014876742
v 0.009979919 0.033698368 0.014830999
v 0.005037653 0.034620510 0.014844659
v 0.000000000 0.035089462 0.014917019
v -0.005092792 0.034999442 0.015007138
v -0.010133833 0.034218077 0.015059729
v -0.014965783 0.032689587 0.015041786
v -0.019452738 0.030484261 0.014964092
v -0.023539484 0.027755609 0.014872687
v -0.027240376 0.024646055 0.014817254
v -0.030567702 0.021221573 0.014819576
v -0.033467720 0.017482350 0.014863980
v -0.035824546 0.013425774 0.014914372
v -0.037526079 0.009097456 0.014942699
v -0.038527374 0.004589156 0.014946533
v -0.038852654 0.000000000 0.014943775
v -0.038540022 -0.004590663 0.014951440
v -0.037589359 -0.009112797 0.014967897
v -0.035967843 -0.013479476 0.014974029
v -0.033666374 -0.017586120 0.014952209
v -0.030746681 -0.021345828 0.014906347
v -0.027327440 -0.024724827 0.014864612
v -0.023519787 -0.027732385 0.014860242
v -0.019375059 -0.030362531 0.014904337
v -0.014896912 -0.032539153 0.014972565
v -0.010105961 -0.034123964 0.015018308
v -0.005091947 -0.034993637 0.015004649
v -0.000000000 -0.035125382 0.014932289
v 0.005036808 -0.034614705 0.014842170
v 0.009952047 -0.033604255 0.014789579
v 0.014732702 -0.032180470 0.014807521
v 0.019350202 -0.030323578 0.014885216
v 0.023703983 -0.027949572 0.014976621
v 0.027635268 -0.025003338 0.015032054
v 0.031001182 -0.021522516 0.015029732
v 0.033740945 -0.017625073 0.014985327
v 0.035873939 -0.013444284 0.014934935
v 0.037435445 -0.009075483 0.014906609
v 0.038414578 -0.004575720 0.014902775
v 0.040503299 0.000000000 0.010077624
v 0.040125120 0.004779470 0.010069677
v 0.039061495 0.009469687 0.010061734
v 0.037376543 0.014007407 0.010065876
v 0.035117777 0.018344281 0.010089373
v 0.032280054 0.022410370 0.010123609
v 0.028834524 0.026088379 0.010146016
v 0.024798725 0.029240392 0.010135612
v 0.020278374 0.031778110 0.010090923
v 0.015435343 0.033715242 0.010035624
v 0.010408062 0.035144042 0.010005560
v 0.005259066 0.036142137 0.010024869
v 0.000000000 0.036683601 0.010088008
v -0.005330575 0.036633568 0.010161179
v -0.010613546 0.035837885 0.010203098
v -0.015674426 0.034237468 0.010191069
v -0.020365935 0.031915326 0.010134495
v -0.024630863 0.029042464 0.010067005
v -0.028486795 0.025773767 0.010023661
v -0.031948905 0.022180470 0.010019755
v -0.034964632 0.018264283 0.010045374
v -0.037419603 0.014023545 0.010077472
v -0.039203738 0.009504171 0.010098375
v -0.040270480 0.004796785 0.010106156
v -0.040634470 0.000000000 0.010110261
v -0.040318505 -0.004802505 0.010118208
v -0.039311572 -0.009530313 0.010126151
v -0.037584981 -0.014085522 0.010122010
v -0.035149592 -0.018360900 0.010098513
v -0.032090866 -0.022279027 0.010064276
v -0.028538543 -0.025820587 0.010041869
v -0.024594820 -0.028999965 0.010052273
v -0.020290510 -0.031797129 0.010096962
v -0.015614737 -0.034107090 0.010152261
v -0.010591938 -0.035764923 0.010182326
v -0.005331538 -0.036640190 0.010163016
v -0.000000000 -0.036726762 0.010099877
v 0.005260030 -0.036148759 0.010026706
v 0.010386454 -0.035071081 0.009984788
v 0.015375654 -0.033584864 0.009996816
v 0.020202950 -0.031659913 0.010053390
v 0.024762682 -0.029197893 0.010120881
v 0.028886272 -0.026135198 0.010164225
v 0.032422016 -0.022508927 0.010168131
v 0.035302738 -0.018440898 0.010142512
v 0.037541921 -0.014069385 0.010110413
v 0.039169329 -0.009495829 0.010089511
v 0.040173145 -0.004785191 0.010081729
v 0.041584877 0.000000000 0.005083699
v 0.041189964 0.004906308 0.005078872
v 0.040103374 0.009722270 0.005075532
v 0.038390621 0.014387448 0.005079889
v 0.036087859 0.018851018 0.005094187
v 0.033175329 0.023031913 0.005112025
v 0.029619716 0.026798790 0.005120829
v 0.025449616 0.030007863 0.005110678
v 0.020789821 0.032579595 0.005083059
v 0.015815660 0.034545963 0.005052334
v 0.010665543 0.036013457 0.005037687
v 0.005392476 0.037058977 0.005050507
v 0.000000000 0.037641710 0.005086036
v -0.005472545 0.037609241 0.005125499
v -0.010898286 0.036799340 0.005147619
v -0.016095544 0.035157311 0.005141744
v -0.020915092 0.032775907 0.005113688
v -0.025300423 0.029831948 0.005080718
v -0.029266660 0.026479359 0.005059791
v -0.032821812 0.022786485 0.005057552
v -0.035906781 0.018756429 0.005068626
v -0.038407984 0.014393955 0.005082186
v -0.040223687 0.009751437 0.005090759
v -0.041315357 0.004921244 0.005094333
v -0.041696492 0.000000000 0.005097344
v -0.041378920 -0.004928816 0.005102171
v -0.040340251 -0.009779696 0.005105511
v -0.038551331 -0.014447676 0.005101154
v -0.036035921 -0.018823887 0.005086856
v -0.032896223 -0.022838145 0.005069018
v -0.029269105 -0.026481571 0.005060214
v -0.025248868 -0.029771160 0.005070365
v -0.020850863 -0.032675254 0.005097984
v -0.016054740 -0.035068184 0.005128709
v -0.010889261 -0.036768870 0.005143356
v -0.005477924 -0.037646205 0.005130536
v -0.000000000 -0.037708099 0.005095007
v 0.005397855 -0.037095940 0.005055544
v 0.010656519 -0.035982987 0.005033424
v 0.015774856 -0.034456835 0.005039299
v 0.020725592 -0.032478943 0.005067355
v 0.025398062 -0.029947075 0.005100325
v 0.029622160 -0.026801002 0.005121252
v 0.033249740 -0.023083573 0.005123491
v 0.036217000 -0.018918476 0.005112417
v 0.038533967 -0.014441169 0.005098857
v 0.040219938 -0.009750528 0.005090284
v 0.041253528 -0.004913879 0.005086710
v 0.041976571 0.000000000 0.000000000
v 0.041573753 0.004952023 0.000000000
v 0.040472837 0.009811839 0.000000000
v 0.038745785 0.014520551 0.000000000
v 0.036425374 0.019027324 0.000000000
v 0.033484305 0.023246419 0.000000000
v 0.029886761 0.027040403 0.000000000
v 0.025667216 0.030264437 0.000000000
v 0.020959407 0.032845352 0.000000000
v 0.015942792 0.034823656 0.000000000
v 0.010752809 0.036308122 0.000000000
v 0.005437531 0.037368610 0.000000000
v 0.000000000 0.037954107 0.000000000
v -0.005516164 0.037909004 0.000000000
v -0.010981195 0.037079294 0.000000000
v -0.016217473 0.035423639 0.000000000
v -0.021084521 0.033041418 0.000000000
v -0.025529973 0.030102613 0.000000000
v -0.029560932 0.026745605 0.000000000
v -0.033167881 0.023026743 0.000000000
v -0.036276831 0.018949730 0.000000000
v -0.038773504 0.014530939 0.000000000
v -0.040570280 0.009835462 0.000000000
v -0.041646386 0.004960674 0.000000000
v -0.042023429 0.000000000 0.000000000
v -0.041707615 -0.004967968 0.000000000
v -0.040664932 -0.009858409 0.000000000
v -0.038860095 -0.014563390 0.000000000
v -0.036320759 -0.018972676 0.000000000
v -0.033157376 -0.023019449 0.000000000
v -0.029510208 -0.026699712 0.000000000
v -0.025468744 -0.030030417 0.000000000
v -0.021040593 -0.032972579 0.000000000
v -0.016202616 -0.035391188 0.000000000
v -0.010987991 -0.037102241 0.000000000
v -0.005526669 -0.037981199 0.000000000
v -0.000000000 -0.038045893 0.000000000
v 0.005448036 -0.037440806 0.000000000
v 0.010759605 -0.036331069 0.000000000
v 0.015927935 -0.034791205 0.000000000
v 0.020915479 -0.032776513 0.000000000
v 0.025605987 -0.030192241 0.000000000
v 0.029836037 -0.026994510 0.000000000
v 0.033473799 -0.023239126 0.000000000
v 0.036469303 -0.019050270 0.000000000
v 0.038832376 -0.014553002 0.000000000
v 0.040567489 -0.009834785 0.000000000
v 0.041634982 -0.004959316 0.000000000
v 0.041665156 0.000000000 -0.005093513
v 0.041260588 0.004914720 -0.005087580
v 0.040153309 0.009734376 -0.005081852
v 0.038426269 0.014400807 -0.005084606
v 0.036116553 0.018866006 -0.005098238
v 0.033196217 0.023046415 -0.005115244
v 0.029628483 0.026806722 -0.005122345
v 0.025447767 0.030005683 -0.005110307
v 0.020785899 0.032573449 -0.005082100
v 0.015816847 0.034548557 -0.005052714
v 0.010670364 0.036029736 -0.005039964
v 0.005394611 0.037073649 -0.005052506
v 0.000000000 0.037624025 -0.005083647
v -0.005461922 0.037536237 -0.005115549
v -0.010862967 0.036680083 -0.005130937
v -0.016039966 0.035035912 -0.005123989
v -0.020871030 0.032706858 -0.005102915
v -0.025311332 0.029844811 -0.005082908
v -0.029355706 0.026559925 -0.005075186
v -0.032968991 0.022888663 -0.005080230
v -0.036055894 0.018834320 -0.005089675
v -0.038500398 0.014428588 -0.005094415
v -0.040233482 0.009753812 -0.005091998
v -0.041259691 0.004914614 -0.005087470
v -0.041616213 0.000000000 -0.005087530
v -0.041308297 -0.004920403 -0.005093463
v -0.040290316 -0.009767590 -0.005099191
v -0.038515683 -0.014434316 -0.005096437
v -0.036007227 -0.018808898 -0.005082805
v -0.032875334 -0.022823643 -0.005065799
v -0.029260338 -0.026473639 -0.005058698
v -0.025250717 -0.029773340 -0.005070736
v -0.020854785 -0.032681400 -0.005098943
v -0.016053553 -0.035065590 -0.005128329
v -0.010884440 -0.036752591 -0.005141079
v -0.005475789 -0.037631532 -0.005128537
v -0.000000000 -0.037725784 -0.005097396
v 0.005408477 -0.037168945 -0.005065494
v 0.010691837 -0.036102244 -0.005050106
v 0.015830434 -0.034578235 -0.005057054
v 0.020769654 -0.032547991 -0.005078128
v 0.025387153 -0.029934212 -0.005098135
v 0.029533114 -0.026720437 -0.005105857
v 0.033102561 -0.022981394 -0.005100812
v 0.036067887 -0.018840585 -0.005091368
v 0.038441553 -0.014406535 -0.005086628
v 0.040210142 -0.009748154 -0.005089045
v 0.041309194 -0.004920510 -0.005093573
v 0.040647818 0.000000000 -0.010113582
v 0.040244998 0.004793749 -0.010099761
v 0.039140810 0.009488915 -0.010082165
v 0.037431683 0.014028072 -0.010080725
v 0.035164345 0.018368607 -0.010102752
v 0.032315517 0.022434991 -0.010134731
v 0.028848657 0.026101166 -0.010150989
v 0.024793019 0.029233663 -0.010133280
v 0.020269083 0.031763550 -0.010086300
v 0.015436896 0.033718635 -0.010036634
v 0.010417942 0.035177404 -0.010015058
v 0.005264338 0.036178366 -0.010034918
v 0.000000000 0.036664071 -0.010082637
v -0.005312879 0.036511962 -0.010127449
v -0.010551167 0.035627254 -0.010143131
v -0.015573789 0.034017648 -0.010125638
v -0.020284384 0.031787528 -0.010093914
v -0.024648123 0.029062816 -0.010074059
v -0.028645448 0.025917310 -0.010079486
v -0.032211715 0.022362926 -0.010102177
v -0.035227978 0.018401846 -0.010121033
v -0.037576933 0.014082506 -0.010119843
v -0.039210794 0.009505882 -0.010100192
v -0.040163011 0.004783984 -0.010079186
v -0.040489951 0.000000000 -0.010074303
v -0.040198626 -0.004788226 -0.010088124
v -0.039232257 -0.009511085 -0.010105721
v -0.037529841 -0.014064858 -0.010107160
v -0.035103024 -0.018336575 -0.010085134
v -0.032055403 -0.022254407 -0.010053154
v -0.028524410 -0.025807799 -0.010036896
v -0.024600526 -0.029006693 -0.010054605
v -0.020299802 -0.031811689 -0.010101586
v -0.015613184 -0.034103697 -0.010151251
v -0.010582058 -0.035731561 -0.010172827
v -0.005326266 -0.036603961 -0.010152967
v -0.000000000 -0.036746292 -0.010105248
v 0.005277725 -0.036270365 -0.010060437
v 0.010448833 -0.035281711 -0.010044754
v 0.015476291 -0.033804683 -0.010062247
v 0.020284500 -0.031787711 -0.010093972
v 0.024745421 -0.029177541 -0.010113826
v 0.028727619 -0.025991656 -0.010108400
v 0.032159205 -0.022326471 -0.010085709
v 0.035039392 -0.018303335 -0.010066852
v 0.037384591 -0.014010423 -0.010068043
v 0.039162273 -0.009494118 -0.010087694
v 0.040280613 -0.004797992 -0.010108699
v 0.038933830 0.000000000 -0.014974998
v 0.038534987 0.004590063 -0.014949487
v 0.037447132 0.009078316 -0.014911262
v 0.035779471 0.013408881 -0.014895607
v 0.033589961 0.017546204 -0.014918271
v 0.030862840 0.021426472 -0.014962662
v 0.027562900 0.024937862 -0.014992689
v 0.023711280 0.027958176 -0.014981231
v 0.019410884 0.030418672 -0.014931896
v 0.014801807 0.032331417 -0.014876978
v 0.009994795 0.033748599 -0.014853107
v 0.005047445 0.034687802 -0.014873512
v 0.000000000 0.035092931 -0.014918493
v -0.005073882 0.034869489 -0.014951417
v -0.010058408 0.033963394 -0.014947640
v -0.014838312 0.032411153 -0.014913667
v -0.019345439 0.030316114 -0.014881552
v -0.023555786 0.027774831 -0.014882987
v -0.027435675 0.024822754 -0.014923486
v -0.030892451 0.021447030 -0.014977018
v -0.033786296 0.017648762 -0.015005469
v -0.036001081 0.013491933 -0.014987867
v -0.037510744 0.009093738 -0.014936592
v -0.038376318 0.004571163 -0.014887932
v -0.038672051 0.000000000 -0.014874310
v -0.038406965 -0.004574814 -0.014899821
v -0.037514393 -0.009094623 -0.014938045
v -0.035919014 -0.013461177 -0.014953701
v -0.033618703 -0.017561218 -0.014931036
v -0.030706045 -0.021317617 -0.014886646
v -0.027312744 -0.024711531 -0.014856618
v -0.023532187 -0.027747005 -0.014868076
v -0.019392056 -0.030389167 -0.014917412
v -0.014896678 -0.032538641 -0.014972330
v -0.010091085 -0.034073733 -0.014996201
v -0.005082155 -0.034926345 -0.014975795
v -0.000000000 -0.035121913 -0.014930814
v 0.005055718 -0.034744657 -0.014897891
v 0.010027472 -0.033858938 -0.014901668
v 0.014860173 -0.032458905 -0.014935640
v 0.019457501 -0.030491725 -0.014967756
v 0.023687681 -0.027930350 -0.014966321
v 0.027439969 -0.024826639 -0.014925822
v 0.030676433 -0.021297060 -0.014872290
v 0.033422368 -0.017458660 -0.014843839
v 0.035697404 -0.013378125 -0.014861441
v 0.037450781 -0.009079201 -0.014912715
v 0.038565634 -0.004593713 -0.014961376
v 0.036545352 0.000000000 -0.019592364
v 0.036153639 0.004306410 -0.019549612
v 0.035100851 0.008509507 -0.019481776
v 0.033504674 0.012556367 -0.019442170
v 0.031431730 0.016418821 -0.019457738
v 0.028873957 0.020045694 -0.019511666
v 0.025798699 0.023341680 -0.019559939
v 0.022218891 0.026198488 -0.019567257
v 0.018217765 0.028548942 -0.019533487
v 0.013912559 0.030389042 -0.019490458
v 0.009401070 0.031743818 -0.019473130
v 0.004745098 0.032609972 -0.019489569
v 0.000000000 0.032933705 -0.019514659
v -0.004750754 0.032648837 -0.019512797
v -0.009399978 0.031740128 -0.019470867
v -0.013857839 0.030269518 -0.019413800
v -0.018082518 0.028336998 -0.019388472
v -0.022059743 0.026010835 -0.019427102
v -0.025744184 0.023292357 -0.019518607
v -0.029021698 0.020148262 -0.019611502
v -0.031739262 0.016579464 -0.019648114
v -0.033786193 0.012661871 -0.019605531
v -0.035156458 0.008522988 -0.019512640
v -0.035932591 0.004280081 -0.019430083
v -0.036200782 0.000000000 -0.019407636
v -0.035970142 -0.004284553 -0.019450388
v -0.035166519 -0.008525427 -0.019518224
v -0.033703990 -0.012631064 -0.019557830
v -0.031568270 -0.016490145 -0.019542262
v -0.028839431 -0.020021724 -0.019488334
v -0.025640586 -0.023198625 -0.019440061
v -0.022066149 -0.026018388 -0.019432743
v -0.018155302 -0.028451058 -0.019466513
v -0.013926181 -0.030418797 -0.019509542
v -0.009427015 -0.031831421 -0.019526870
v -0.004750177 -0.032644877 -0.019510431
v -0.000000000 -0.032884225 -0.019485341
v 0.004744522 -0.032606012 -0.019487203
v 0.009428107 -0.031835111 -0.019529133
v 0.013980901 -0.030538321 -0.019586200
v 0.018290549 -0.028663002 -0.019611528
v 0.022225297 -0.026206041 -0.019572898
v 0.025695100 -0.023247948 -0.019481393
v 0.028691690 -0.019919155 -0.019388498
v 0.031260738 -0.016329501 -0.019351886
v 0.033422471 -0.012525561 -0.019394469
v 0.035110912 -0.008511946 -0.019487360
v 0.036191190 -0.004310883 -0.019569917
v 0.033517579 0.000000000 -0.023881876
v 0.033139107 0.003947337 -0.023815956
v 0.032145955 0.007793151 -0.023712554
v 0.030656913 0.011489128 -0.023643342
v 0.028741250 0.015013409 -0.023646714
v 0.026396562 0.018325767 -0.023706995
v 0.023594136 0.021347076 -0.023774691
v 0.020341298 0.023984601 -0.023808241
v 0.016703466 0.026175895 -0.023803038
v 0.012775270 0.027904874 -0.023786262
v 0.008639866 0.029173520 -0.023785185
v 0.004359589 0.029960615 -0.023798174
v 0.000000000 0.030214519 -0.023794532
v -0.004349713 0.029892747 -0.023744265
v -0.008591680 0.029010815 -0.023652532
v -0.012657864 0.027648426 -0.023567665
v -0.016527184 0.025899644 -0.023551829
v -0.020192391 0.023809023 -0.023633955
v -0.023600542 0.021352871 -0.023781145
v -0.026626230 0.018485213 -0.023913262
v -0.029114271 0.015208262 -0.023953616
v -0.030964653 0.011604457 -0.023880678
v -0.032187735 0.007803280 -0.023743374
v -0.032877888 0.003916222 -0.023628227
v -0.033124102 0.000000000 -0.023601516
v -0.032932445 -0.003922721 -0.023667435
v -0.032224966 -0.007812306 -0.023770837
v -0.030911971 -0.011584714 -0.023840049
v -0.028972139 -0.015134018 -0.023836677
v -0.026473838 -0.018379415 -0.023776397
v -0.023528648 -0.021287824 -0.023708701
v -0.020227587 -0.023850523 -0.023675150
v -0.016617374 -0.026040980 -0.023680354
v -0.012727398 -0.027800308 -0.023697129
v -0.008608271 -0.029066836 -0.023698206
v -0.004338896 -0.029818408 -0.023685217
v -0.000000000 -0.030080335 -0.023688860
v 0.004348772 -0.029886276 -0.023739126
v 0.008656456 -0.029229541 -0.023830859
v 0.012844803 -0.028056756 -0.023915727
v 0.016793657 -0.026317231 -0.023931562
v 0.020376494 -0.024026101 -0.023849436
v 0.023522243 -0.021282029 -0.023702247
v 0.026244170 -0.018219968 -0.023570130
v 0.028599117 -0.014939164 -0.023529776
v 0.030604232 -0.011469384 -0.023602713
v 0.032183185 -0.007802177 -0.023740018
v 0.033193664 -0.003953836 -0.023855164
v 0.029898639 0.000000000 -0.027763022
v 0.029543406 0.003519038 -0.027669882
v 0.028638756 0.006942900 -0.027531235
v 0.027295529 0.010229399 -0.027434148
v 0.025577794 0.013360932 -0.027425072
v 0.023485503 0.016304769 -0.027488341
v 0.020995280 0.018995730 -0.027570967
v 0.018113055 0.021357261 -0.027628665
v 0.014891013 0.023335611 -0.027654739
v 0.011403870 0.024909342 -0.027671196
v 0.007719273 0.026065031 -0.027694624
v 0.003895160 0.026768900 -0.027710412
v 0.000000000 0.026971106 -0.027680872
v -0.003877188 0.026645387 -0.027582554
v -0.007648500 0.025826059 -0.027440711
v -0.011262340 0.024600199 -0.027327775
v -0.014710750 0.023053122 -0.027319964
v -0.017989956 0.021212113 -0.027440897
v -0.021044235 0.019040022 -0.027635254
v -0.023748737 0.016487518 -0.027796440
v -0.025958212 0.013559649 -0.027832964
v -0.027588259 0.010339104 -0.027728365
v -0.028660574 0.006948189 -0.027552209
v -0.029270044 0.003486477 -0.027413856
v -0.029498330 0.000000000 -0.027391307
v -0.029345414 -0.003495455 -0.027484446
v -0.028734311 -0.006966065 -0.027623094
v -0.027580116 -0.010336053 -0.027720181
v -0.025861490 -0.013509125 -0.027729257
v -0.023637281 -0.016410141 -0.027665988
v -0.021004720 -0.019004270 -0.027583362
v -0.018045529 -0.021277639 -0.027525664
v -0.014807472 -0.023204694 -0.027499590
v -0.011326366 -0.024740050 -0.027483133
v -0.007653794 -0.025843935 -0.027459705
v -0.003857700 -0.026511461 -0.027443917
v -0.000000000 -0.026769010 -0.027473457
v 0.003875673 -0.026634974 -0.027571775
v 0.007724567 -0.026082907 -0.027713618
v 0.011467897 -0.025049194 -0.027826554
v 0.014987735 -0.023487183 -0.027834365
v 0.018168628 -0.021422787 -0.027713432
v 0.020955765 -0.018959978 -0.027519075
v 0.023374047 -0.016227391 -0.027357889
v 0.025481072 -0.013310408 -0.027321365
v 0.027287385 -0.010226347 -0.027425963
v 0.028712493 -0.006960776 -0.027602120
v 0.029618777 -0.003528016 -0.027740473
v 0.025749537 0.000000000 -0.031160490
v 0.025430701 0.003029157 -0.031040208
v 0.024644316 0.005974527 -0.030875062
v 0.023484499 0.008801160 -0.030761025
v 0.022002668 0.011493414 -0.030745359
v 0.020197758 0.014022258 -0.030808557
v 0.018052791 0.016333478 -0.030895426
v 0.015576497 0.018366383 -0.030964033
v 0.012813135 0.020079382 -0.031011319
v 0.009821441 0.021452861 -0.031057780
v 0.006653677 0.022466920 -0.031110021
v 0.003358669 0.023081948 -0.031138984
v 0.000000000 0.023250155 -0.031097565
v -0.003340011 0.022953718 -0.030965993
v -0.006584414 0.022233048 -0.030786178
v -0.009692728 0.021171715 -0.030650759
v -0.012662572 0.019843435 -0.030646914
v -0.015490309 0.018264758 -0.030792702
v -0.018122282 0.016396350 -0.031014352
v -0.020445327 0.014194132 -0.031186185
v -0.022334789 0.011666902 -0.031209447
v -0.023725279 0.008891396 -0.031076408
v -0.024644087 0.005974472 -0.030874775
v -0.025175913 0.002998808 -0.030729218
v -0.025386423 0.000000000 -0.030721071
v -0.025267783 -0.003009751 -0.030841353
v -0.024749229 -0.005999961 -0.031006499
v -0.023758967 -0.008904021 -0.031120535
v -0.022282372 -0.011639521 -0.031136202
v -0.020371127 -0.014142619 -0.031073004
v -0.018105793 -0.016381432 -0.030986134
v -0.015553103 -0.018338798 -0.030917527
v -0.012754845 -0.019988036 -0.030870241
v -0.009747443 -0.021291228 -0.030823781
v -0.006581284 -0.022222477 -0.030771540
v -0.003315913 -0.022788109 -0.030742577
v -0.000000000 -0.023015714 -0.030783995
v 0.003334572 -0.022916340 -0.030915567
v 0.006650546 -0.022456349 -0.031095383
v 0.009876156 -0.021572374 -0.031230802
v 0.012905408 -0.020223983 -0.031234646
v 0.015639291 -0.018440424 -0.031088859
v 0.018036302 -0.016318559 -0.030867208
v 0.020123557 -0.013970744 -0.030695375
v 0.021950251 -0.011466033 -0.030672114
v 0.023518188 -0.008813786 -0.030805152
v 0.024749457 -0.006000016 -0.031006785
v 0.025522572 -0.003040100 -0.031152343
v 0.021144014 0.000000000 -0.034006614
v 0.020875645 0.002486585 -0.033864703
v 0.020233580 0.004905231 -0.033690302
v 0.019288847 0.007228778 -0.033578932
v 0.018075330 0.009441911 -0.033568470
v 0.016588710 0.011516683 -0.033629617
v 0.014818722 0.013407415 -0.033705572
v 0.012779357 0.015068250 -0.033762750
v 0.010510847 0.016471480 -0.033809880
v 0.008059665 0.017604634 -0.033872971
v 0.005463792 0.018449134 -0.033952663
v 0.002759798 0.018966292 -0.034005996
v 0.000000000 0.019111801 -0.033973731
v -0.002745855 0.018870474 -0.033834198
v -0.005413217 0.018278361 -0.033638384
v -0.007968903 0.017406383 -0.033491518
v -0.010410489 0.016314211 -0.033487065
v -0.012732352 0.015012826 -0.033638563
v -0.014887137 0.013469314 -0.033861182
v -0.016781884 0.011650793 -0.034021230
v -0.018319701 0.009569562 -0.034022302
v -0.019455210 0.007291125 -0.033868543
v -0.020215741 0.004900907 -0.033660598
v -0.020667818 0.002461830 -0.033527565
v -0.020855986 0.000000000 -0.033543368
v -0.020765040 -0.002473410 -0.033685278
v -0.020335304 -0.004929892 -0.033859680
v -0.019514093 -0.007313192 -0.033971050
v -0.018297737 -0.009558089 -0.033981512
v -0.016732130 -0.011616251 -0.033920365
v -0.014879763 -0.013462642 -0.033844410
v -0.012788623 -0.015079177 -0.033787232
v -0.010489153 -0.016437485 -0.033740101
v -0.008013039 -0.017502788 -0.033677010
v -0.005406608 -0.018256047 -0.033597318
v -0.002722303 -0.018708613 -0.033543986
v -0.000000000 -0.018888199 -0.033576250
v 0.002736245 -0.018804431 -0.033715784
v 0.005457183 -0.018426820 -0.033911598
v 0.008103801 -0.017701039 -0.034058463
v 0.010589511 -0.016594754 -0.034062917
v 0.012835628 -0.015134601 -0.033911418
v 0.014811348 -0.013400744 -0.033688800
v 0.016538956 -0.011482141 -0.033528751
v 0.018053366 -0.009430438 -0.033527679
v 0.019347731 -0.007250846 -0.033681439
v 0.020353144 -0.004934217 -0.033889383
v 0.020972866 -0.002498165 -0.034022416
v 0.016167823 0.000000000 -0.036244536
v 0.015961869 0.001901285 -0.036091603
v 0.015481914 0.003753284 -0.035931212
v 0.014773574 0.005536613 -0.035847694
v 0.013852529 0.007236070 -0.035858280
v 0.012710951 0.008824555 -0.035917193
v 0.011344568 0.010264133 -0.035966152
v 0.009772092 0.011522359 -0.035985822
v 0.008030579 0.012584668 -0.036005416
v 0.006156486 0.013447542 -0.036064860
v 0.004175335 0.014098509 -0.036164802
v 0.002110683 0.014505349 -0.036250693
v 0.000000000 0.014629896 -0.036249159
v -0.002103672 0.014457165 -0.036130275
v -0.004149918 0.014012686 -0.035944655
v -0.006111370 0.013348995 -0.035800568
v -0.007983019 0.012510138 -0.035792182
v -0.009756961 0.011504517 -0.035930101
v -0.011395401 0.010310125 -0.036127310
v -0.012830337 0.008907439 -0.036254542
v -0.013995207 0.007310600 -0.036227612
v -0.014862976 0.005570118 -0.036064626
v -0.015456497 0.003747122 -0.035872224
v -0.015820339 0.001884426 -0.035771589
v -0.015977586 0.000000000 -0.035818068
v -0.015908531 -0.001894931 -0.035971001
v -0.015568166 -0.003774194 -0.036131391
v -0.014924911 -0.005593329 -0.036214909
v -0.013986211 -0.007305900 -0.036204324
v -0.012791716 -0.008880626 -0.036145411
v -0.011385668 -0.010301319 -0.036096452
v -0.009796792 -0.011551483 -0.036076781
v -0.008042126 -0.012602764 -0.036057188
v -0.006145029 -0.013422516 -0.035997743
v -0.004144509 -0.013994421 -0.035897802
v -0.002085135 -0.014329775 -0.035811910
v -0.000000000 -0.014454045 -0.035813444
v 0.002092146 -0.014377959 -0.035932329
v 0.004169926 -0.014080243 -0.036117948
v 0.006190145 -0.013521063 -0.036262036
v 0.008089685 -0.012677293 -0.036270422
v 0.009811924 -0.011569325 -0.036132503
v 0.011334835 -0.010255327 -0.035935293
v 0.012672330 -0.008797742 -0.035808061
v 0.013843533 -0.007231370 -0.035834991
v 0.014835509 -0.005559824 -0.035997978
v 0.015593583 -0.003780356 -0.036190379
v 0.016050061 -0.001911790 -0.036291015
v 0.010916745 0.000000000 -0.037831715
v 0.010780341 0.001284091 -0.037681378
v 0.010468916 0.002537982 -0.037559586
v 0.010005154 0.003749578 -0.037529371
v 0.009390634 0.004905334 -0.037577437
v 0.008616015 0.005981653 -0.037635928
v 0.007681238 0.006949691 -0.037645153
v 0.006605805 0.007788962 -0.037604646
v 0.005420761 0.008494839 -0.037571029
v 0.004152658 0.009070603 -0.037605325
v 0.002816680 0.009510852 -0.037714138
v 0.001425037 0.009793349 -0.037834781
v 0.000000000 0.009889503 -0.037879395
v -0.001423911 0.009785613 -0.037804894
v -0.002812109 0.009495416 -0.037652928
v -0.004143851 0.009051366 -0.037525575
v -0.005412263 0.008481523 -0.037512133
v -0.006608785 0.007792475 -0.037621607
v -0.007707326 0.006973295 -0.037773009
v -0.008665636 0.006016102 -0.037852680
v -0.009445477 0.004933982 -0.037796894
v -0.010034217 0.003760470 -0.037638389
v -0.010447399 0.002532765 -0.037482390
v -0.010708609 0.001275547 -0.037430649
v -0.010824055 0.000000000 -0.037510500
v -0.010774464 -0.001283391 -0.037660836
v -0.010531084 -0.002553053 -0.037782628
v -0.010080726 -0.003777900 -0.037812844
v -0.009437451 -0.004929789 -0.037764777
v -0.008632122 -0.005992835 -0.037706286
v -0.007691829 -0.006959274 -0.037697062
v -0.006629155 -0.007816494 -0.037737568
v -0.005449639 -0.008540095 -0.037771186
v -0.004167186 -0.009102336 -0.037736889
v -0.002810253 -0.009489148 -0.037628077
v -0.001412707 -0.009708617 -0.037507434
v -0.000000000 -0.009780744 -0.037462820
v 0.001413833 -0.009716353 -0.037537321
v 0.002814824 -0.009504584 -0.037689286
v 0.004175993 -0.009121573 -0.037816640
v 0.005458137 -0.008553411 -0.037830081
v 0.006626176 -0.007812981 -0.037720608
v 0.007665741 -0.006935671 -0.037569206
v 0.008582500 -0.005958386 -0.037489534
v 0.009382608 -0.004901142 -0.037545320
v 0.010051663 -0.003767008 -0.037703826
v 0.010552601 -0.002558269 -0.037859824
v 0.010846195 -0.001291935 -0.037911566
v 0.005492963 0.000000000 -0.038742968
v 0.005427085 0.000646443 -0.038608617
v 0.005278755 0.001279730 -0.038545525
v 0.005054540 0.001894263 -0.038588022
v 0.004750077 0.002481272 -0.038686215
v 0.004358364 0.003025787 -0.038747447
v 0.003880917 0.003511306 -0.038711109
v 0.003331388 0.003928068 -0.038597951
v 0.002728907 0.004276452 -0.038495048
v 0.002088231 0.004561299 -0.038487979
v 0.001416188 0.004781925 -0.038593207
v 0.000716988 0.004927390 -0.038743628
v 0.000000000 0.004982115 -0.038838787
v -0.000718416 0.004937206 -0.038820813
v -0.001420733 0.004797273 -0.038717076
v -0.002095211 0.004576546 -0.038616633
v -0.002736294 0.004288028 -0.038599255
v -0.003337850 0.003935687 -0.038672820
v -0.003886628 0.003516473 -0.038768073
v -0.004363680 0.003029477 -0.038794702
v -0.004753553 0.002483087 -0.038714522
v -0.005052712 0.001893578 -0.038574065
v -0.005268499 0.001277243 -0.038470634
v -0.005408727 0.000644256 -0.038478019
v -0.005471237 0.000000000 -0.038589732
v -0.005443315 -0.000648376 -0.038724083
v -0.005311849 -0.001287753 -0.038787174
v -0.005075060 -0.001901953 -0.038744677
v -0.004745199 -0.002478723 -0.038646484
v -0.004340120 -0.003013121 -0.038585252
v -0.003871943 -0.003503186 -0.038621591
v -0.003343195 -0.003941990 -0.038734748
v -0.002753194 -0.004314512 -0.038837651
v -0.002107587 -0.004603577 -0.038844720
v -0.001421556 -0.004800050 -0.038739492
v -0.000714128 -0.004907734 -0.038589071
v -0.000000000 -0.004937876 -0.038493912
v 0.000712699 -0.004897917 -0.038511886
v 0.001417010 -0.004784702 -0.038615623
v 0.002100606 -0.004588330 -0.038716067
v 0.002745806 -0.004302936 -0.038733444
v 0.003336733 -0.003934370 -0.038659879
v 0.003866232 -0.003498019 -0.038564626
v 0.004334805 -0.003009431 -0.038537997
v 0.004741723 -0.002476908 -0.038618177
v 0.005076888 -0.001902638 -0.038758635
v 0.005322105 -0.001290239 -0.038862065
v 0.005461673 -0.000650563 -0.038854680
v 0.000000000 0.000000000 -0.039000000
f 1 2 3
f 1 3 4
f 1 4 5
f 1 5 6
f 1 6 7
f 1 7 8
f 1 8 9
f 1 9 10
f 1 10 11
f 1 11 12
f 1 12 13
f 1 13 14
f 1 14 15
f 1 15 16
f 1 16 17
f 1 17 18
f 1 18 19
f 1 19 20
f 1 20 21
f 1 21 22
f 1 22 23
f 1 23 24
f 1 24 25
f 1 25 26
f 1 26 27
f 1 27 28
f 1 28 29
f 1 29 30
f 1 30 31
f 1 31 32
f 1 32 33
f 1 33 34
f 1 34 35
f 1 35 36
f 1 36 37
f 1 37 38
f 1 38 39
f 1 39 40
f 1 40 41
f 1 41 42
f 1 42 43
f 1 43 44
f 1 44 45
f 1 45 46
f 1 46 47
f 1 47 48
f 1 48 49
f 1 49 2
f 2 50 51
f 2 51 3
f 3 51 52
f 3 52 4
f 4 52 53
f 4 53 5
f 5 53 54
f 5 54 6
f 6 54 55
f 6 55 7
f 7 55 56
f 7 56 8
f 8 56 57
f 8 57 9
f 9 57 58
f 9 58 10
f 10 58 59
f 10 59 11
f 11 59 60
f 11 60 12
f 12 60 61
f 12 61 13
f 13 61 62
f 13 62 14
f 14 62 63
f 14 63 15
f 15 63 64
f 15 64 16
f 16 64 65
f 16 65 17
f 17 65 66
f 17 66 18
f 18 66 67
f 18 67 19
f 19 67 68
f 19 68 20
f 20 68 69
f 20 69 21
f 21 69 70
f 21 70 22
f 22 70 71
f 22 71 23
f 23 71 72
f 23 72 24
f 24 72 73
f 24 73 25
f 25 73 74
f 25 74 26
f 26 74 75
f 26 75 27
f 27 75 76
f 27 76 28
f 28 76 77
f 28 77 29
f 29 77 78
f 29 78 30
f 30 78 79
f 30 79 31
f 31 79 80
f 31 80 32
f 32 80 81
f 32 81 33
f 33 81 82
f 33 82 34
f 34 82 83
f 34 83 35
f 35 83 84
f 35 84 36
f 36 84 85
f 36 85 37
f 37 85 86
f 37 86 38
f 38 86 87
f 38 87 39
f 39 87 88
f 39 88 40
f 40 88 89
f 40 89 41
f 41 89 90
f 41 90 42
f 42 90 91
f 42 91 43
f 43 91 92
f 43 92 44
f 44 92 93
f 44 93 45
f 45 93 94
f 45 94 46
f 46 94 95
f 46 95 47
f 47 95 96
f 47 96 48
f 48 96 97
f 48 97 49
f 49 97 50
f 49 50 2
f 50 98 99
f 50 99 51
f 51 99 100
f 51 100 52
f 52 100 101
f 52 101 53
f 53 101 102
f 53 102 54
f 54 102 103
f 54 103 55
f 55 103 104
f 55 104 56
f 56 104 105
f 56 105 57
f 57 105 106
f 57 106 58
f 58 106 107
f 58 107 59
f 59 107 108
f 59 108 60
f 60 108 109
f 60 109 61
f 61 109 110
f 61 110 62
f 62 110 111
f 62 111 63
f 63 111 112
f 63 112 64
f 64 112 113
f 64 113 65
f 65 113 114
f 65 114 66
f 66 114 115
f 66 115 67
f 67 115 116
f 67 116 68
f 68 116 117
f 68 117 69
f 69 117 118
f 69 118 70
f 70 118 119
f 70 119 71
f 71 119 120
f 71 120 72
f 72 120 121
f 72 121 73
f 73 121 122
f 73 122 74
f 74 122 123
f 74 123 75
f 75 123 124
f 75 124 76
f 76 124 125
f 76 125 77
f 77 125 126
f 77 126 78
f 78 126 127
f 78 127 79
f 79 127 128
f 79 128 80
f 80 128 129
f 80 129 81
f 81 129 130
f 81 130 82
f 82 130 131
f 82 131 83
f 83 131 132
f 83 132 84
f 84 132 133
f 84 133 85
f 85 133 134
f 85 134 86
f 86 134 135
f 86 135 87
f 87 135 136
f 87 136 88
f 88 136 137
f 88 137 89
f 89 137 138
f 89 138 90
f 90 138 139
f 90 139 91
f 91 139 140
f 91 140 92
f 92 140 141
f 92 141 93
f 93 141 142
f 93 142 94
f 94 142 143
f 94 143 95
f 95 143 144
f 95 144 96
f 96 144 145
f 96 145 97
f 97 145 98
f 97 98 50
f 98 146 147
f 98 147 99
f 99 147 148
f 99 148 100
f 100 148 149
f 100 149 101
f 101 149 150
f 101 150 102
f 102 150 151
f 102 151 103
f 103 151 152
f 103 152 104
f 104 152 153
f 104 153 105
f 105 153 154
f 105 154 106
f 106 154 155
f 106 155 107
f 107 155 156
f 107 156 108
f 108 156 157
f 108 157 109
f 109 157 158
f 109 158 110
f 110 158 159
f 110 159 111
f 111 159 160
f 111 160 112
f 112 160 161
f 112 161 113
f 113 161 162
f 113 162 114
f 114 162 163
f 114 163 115
f 115 163 164
f 115 164 116
f 116 164 165
f 116 165 117
f 117 165 166
f 117 166 118
f 118 166 167
f 118 167 119
f 119 167 168
f 119 168 120
f 120 168 169
f 120 169 121
f 121 169 170
f 121 170 122
f 122 170 171
f 122 171 123
f 123 171 172
f 123 172 124
f 124 172 173
f 124 173 125
f 125 173 174
f 125 174 126
f 126 174 175
f 126 175 127
f 127 175 176
f 127 176 128
f 128 176 177
f 128 177 129
f 129 177 178
f 129 178 130
f 130 178 179
f 130 179 131
f 131 179 180
f 131 180 132
f 132 180 181
f 132 181 133
f 133 181 182
f 133 182 134
f 134 182 183
f 134 183 135
f 135 183 184
f 135 184 136
f 136 184 185
f 136 185 137
f 137 185 186
f 137 186 138
f 138 186 187
f 138 187 139
f 139 187 188
f 139 188 140
f 140 188 189
f 140 189 141
f 141 189 190
f 141 190 142
f 142 190 191
f 142 191 143
f 143 191 192
f 143 192 144
f 144 192 193
f 144 193 145
f 145 193 146
f 145 146 98
f 146 194 195
f 146 195 147
f 147 195 196
f 147 196 148
f 148 196 197
f 148 197 149
f 149 197 198
f 149 198 150
f 150 198 199
f 150 199 151
f 151 199 200
f 151 200 152
f 152 200 201
f 152 201 153
f 153 201 202
f 153 202 154
f 154 202 203
f 154 203 155
f 155 203 204
f 155 204 156
f 156 204 205
f 156 205 157
f 157 205 206
f 157 206 158
f 158 206 207
f 158 207 159
f 159 207 208
f 159 208 160
f 160 208 209
f 160 209 161
f 161 209 210
f 161 210 162
f 162 210 211
f 162 211 163
f 163 211 212
f 163 212 164
f 164 212 213
f 164 213 165
f 165 213 214
f 165 214 166
f 166 214 215
f 166 215 167
f 167 215 216
f 167 216 168
f 168 216 217
f 168 217 169
f 169 217 218
f 169 218 170
f 170 218 219
f 170 219 171
f 171 219 220
f 171 220 172
f 172 220 221
f 172 221 173
f 173 221 222
f 173 222 174
f 174 222 223
f 174 223 175
f 175 223 224
f 175 224 176
f 176 224 225
f 176 225 177
f 177 225 226
f 177 226 178
f 178 226 227
f 178 227 179
f 179 227 228
f 179 228 180
f 180 228 229
f 180 229 181
f 181 229 230
f 181 230 182
f 182 230 231
f 182 231 183
f 183 231 232
f 183 232 184
f 184 232 233
f 184 233 185
f 185 233 234
f 185 234 186
f 186 234 235
f 186 235 187
f 187 235 236
f 187 236 188
f 188 236 237
f 188 237 189
f 189 237 238
f 189 238 190
f 190 238 239
f 190 239 191
f 191 239 240
f 191 240 192
f 192 240 241
f 192 241 193
f 193 241 194
f 193 194 146
f 194 242 243
f 194 243 195
f 195 243 244
f 195 244 196
f 196 244 245
f 196 245 197
f 197 245 246
f 197 246 198
f 198 246 247
f 198 247 199
f 199 247 248
f 199 248 200
f 200 248 249
f 200 249 201
f 201 249 250
f 201 250 202
f 202 250 251
f 202 251 203
f 203 251 252
f 203 252 204
f 204 252 253
f 204 253 205
f 205 253 254
f 205 254 206
f 206 254 255
f 206 255 207
f 207 255 256
f 207 256 208
f 208 256 257
f 208 257 209
f 209 257 258
f 209 258 210
f 210 258 259
f 210 259 211
f 211 259 260
f 211 260 212
f 212 260 261
f 212 261 213
f 213 261 262
f 213 262 214
f 214 262 263
f 214 263 215
f 215 263 264
f 215 264 216
f 216 264 265
f 216 265 217
f 217 265 266
f 217 266 218
f 218 266 267
f 218 267 219
f 219 267 268
f 219 268 220
f 220 268 269
f 220 269 221
f 221 269 270
f 221 270 222
f 222 270 271
f 222 271 223
f 223 271 272
f 223 272 224
f 224 272 273
f 224 273 225
f 225 273 274
f 225 274 226
f 226 274 275
f 226 275 227
f 227 275 276
f 227 276 228
f 228 276 277
f 228 277 229
f 229 277 278
f 229 278 230
f 230 278 279
f 230 279 231
f 231 279 280
f 231 280 232
f 232 280 281
f 232 281 233
f 233 281 282
f 233 282 234
f 234 282 283
f 234 283 235
f 235 283 284
f 235 284 236
f 236 284 285
f 236 285 237
f 237 285 286
f 237 286 238
f 238 286 287
f 238 287 239
f 239 287 288
f 239 288 240
f 240 288 289
f 240 289 241
f 241 289 242
f 241 242 194
f 242 290 291
f 242 291 243
f 243 291 292
f 243 292 244
f 244 292 293
f 244 293 245
f 245 293 294
f 245 294 246
f 246 294 295
f 246 295 247
f 247 295 296
f 247 296 248
f 248 296 297
f 248 297 249
f 249 297 298
f 249 298 250
f 250 298 299
f 250 299 251
f 251 299 300
f 251 300 252
f 252 300 301
f 252 301 253
f 253 301 302
f 253 302 254
f 254 302 303
f 254 303 255
f 255 303 304
f 255 304 256
f 256 304 305
f 256 305 257
f 257 305 306
f 257 306 258
f 258 306 307
f 258 307 259
f 259 307 308
f 259 308 260
f 260 308 309
f 260 309 261
f 261 309 310
f 261 310 262
f 262 310 311
f 262 311 263
f 263 311 312
f 263 312 264
f 264 312 313
f 264 313 265
f 265 313 314
f 265 314 266
f 266 314 315
f 266 315 267
f 267 315 316
f 267 316 268
f 268 316 317
f 268 317 269
f 269 317 318
f 269 318 270
f 270 318 319
f 270 319 271
f 271 319 320
f 271 320 272
f 272 320 321
f 272 321 273
f 273 321 322
f 273 322 274
f 274 322 323
f 274 323 275
f 275 323 324
f 275 324 276
f 276 324 325
f 276 325 277
f 277 325 326
f 277 326 278
f 278 326 327
f 278 327 279
f 279 327 328
f 279 328 280
f 280 328 329
f 280 329 281
f 281 329 330
f 281 330 282
f 282 330 331
f 282 331 283
f 283 331 332
f 283 332 284
f 284 332 333
f 284 333 285
f 285 333 334
f 285 334 286
f 286 334 335
f 286 335 287
f 287 335 336
f 287 336 288
f 288 336 337
f 288 337 289
f 289 337 290
f 289 290 242
f 290 338 339
f 290 339 291
f 291 339 340
f 291 340 292
f 292 340 341
f 292 341 293
f 293 341 342
f 293 342 294
f 294 342 343
f 294 343 295
f 295 343 344
f 295 344 296
f 296 344 345
f 296 345 297
f 297 345 346
f 297 346 298
f 298 346 347
f 298 347 299
f 299 347 348
f 299 348 300
f 300 348 349
f 300 349 301
f 301 349 350
f 301 350 302
f 302 350 351
f 302 351 303
f 303 351 352
f 303 352 304
f 304 352 353
f 304 353 305
f 305 353 354
f 305 354 306
f 306 354 355
f 306 355 307
f 307 355 356
f 307 356 308
f 308 356 357
f 308 357 309
f 309 357 358
f 309 358 310
f 310 358 359
f 310 359 311
f 311 359 360
f 311 360 312
f 312 360 361
f 312 361 313
f 313 361 362
f 313 362 314
f 314 362 363
f 314 363 315
f 315 363 364
f 315 364 316
f 316 364 365
f 316 365 317
f 317 365 366
f 317 366 318
f 318 366 367
f 318 367 319
f 319 367 368
f 319 368 320
f 320 368 369
f 320 369 321
f 321 369 370
f 321 370 322
f 322 370 371
f 322 371 323
f 323 371 372
f 323 372 324
f 324 372 373
f 324 373 325
f 325 373 374
f 325 374 326
f 326 374 375
f 326 375 327
f 327 375 376
f 327 376 328
f 328 376 377
f 328 377 329
f 329 377 378
f 329 378 330
f 330 378 379
f 330 379 331
f 331 379 380
f 331 380 332
f 332 380 381
f 332 381 333
f 333 381 382
f 333 382 334
f 334 382 383
f 334 383 335
f 335 383 384
f 335 384 336
f 336 384 385
f 336 385 337
f 337 385 338
f 337 338 290
f 338 386 387
f 338 387 339
f 339 387 388
f 339 388 340
f 340 388 389
f 340 389 341
f 341 389 390
f 341 390 342
f 342 390 391
f 342 391 343
f 343 391 392
f 343 392 344
f 344 392 393
f 344 393 345
f 345 393 394
f 345 394 346
f 346 394 395
f 346 395 347
f 347 395 396
f 347 396 348
f 348 396 397
f 348 397 349
f 349 397 398
f 349 398 350
f 350 398 399
f 350 399 351
f 351 399 400
f 351 400 352
f 352 400 401
f 352 401 353
f 353 401 402
f 353 402 354
f 354 402 403
f 354 403 355
f 355 403 404
f 355 404 356
f 356 404 405
f 356 405 357
f 357 405 406
f 357 406 358
f 358 406 407
f 358 407 359
f 359 407 408
f 359 408 360
f 360 408 409
f 360 409 361
f 361 409 410
f 361 410 362
f 362 410 411
f 362 411 363
f 363 411 412
f 363 412 364
f 364 412 413
f 364 413 365
f 365 413 414
f 365 414 366
f 366 414 415
f 366 415 367
f 367 415 416
f 367 416 368
f 368 416 417
f 368 417 369
f 369 417 418
f 369 418 370
f 370 418 419
f 370 419 371
f 371 419 420
f 371 420 372
f 372 420 421
f 372 421 373
f 373 421 422
f 373 422 374
f 374 422 423
f 374 423 375
f 375 423 424
f 375 424 376
f 376 424 425
f 376 425 377
f 377 425 426
f 377 426 378
f 378 426 427
f 378 427 379
f 379 427 428
f 379 428 380
f 380 428 429
f 380 429 381
f 381 429 430
f 381 430 382
f 382 430 431
f 382 431 383
f 383 431 432
f 383 432 384
f 384 432 433
f 384 433 385
f 385 433 386
f 385 386 338
f 386 434 435
f 386 435 387
f 387 435 436
f 387 436 388
f 388 436 437
f 388 437 389
f 389 437 438
f 389 438 390
f 390 438 439
f 390 439 391
f 391 439 440
f 391 440 392
f 392 440 441
f 392 441 393
f 393 441 442
f 393 442 394
f 394 442 443
f 394 443 395
f 395 443 444
f 395 444 396
f 396 444 445
f 396 445 397
f 397 445 446
f 397 446 398
f 398 446 447
f 398 447 399
f 399 447 448
f 399 448 400
f 400 448 449
f 400 449 401
f 401 449 450
f 401 450 402
f 402 450 451
f 402 451 403
f 403 451 452
f 403 452 404
f 404 452 453
f 404 453 405
f 405 453 454
f 405 454 406
f 406 454 455
f 406 455 407
f 407 455 456
f 407 456 408
f 408 456 457
f 408 457 409
f 409 457 458
f 409 458 410
f 410 458 459
f 410 459 411
f 411 459 460
f 411 460 412
f 412 460 461
f 412 461 413
f 413 461 462
f 413 462 414
f 414 462 463
f 414 463 415
f 415 463 464
f 415 464 416
f 416 464 465
f 416 465 417
f 417 465 466
f 417 466 418
f 418 466 467
f 418 467 419
f 419 467 468
f 419 468 420
f 420 468 469
f 420 469 421
f 421 469 470
f 421 470 422
f 422 470 471
f 422 471 423
f 423 471 472
f 423 472 424
f 424 472 473
f 424 473 425
f 425 473 474
f 425 474 426
f 426 474 475
f 426 475 427
f 427 475 476
f 427 476 428
f 428 476 477
f 428 477 429
f 429 477 478
f 429 478 430
f 430 478 479
f 430 479 431
f 431 479 480
f 431 480 432
f 432 480 481
f 432 481 433
f 433 481 434
f 433 434 386
f 434 482 483
f 434 483 435
f 435 483 484
f 435 484 436
f 436 484 485
f 436 485 437
f 437 485 486
f 437 486 438
f 438 486 487
f 438 487 439
f 439 487 488
f 439 488 440
f 440 488 489
f 440 489 441
f 441 489 490
f 441 490 442
f 442 490 491
f 442 491 443
f 443 491 492
f 443 492 444
f 444 492 493
f 444 493 445
f 445 493 494
f 445 494 446
f 446 494 495
f 446 495 447
f 447 495 496
f 447 496 448
f 448 496 497
f 448 497 449
f 449 497 498
f 449 498 450
f 450 498 499
f 450 499 451
f 451 499 500
f 451 500 452
f 452 500 501
f 452 501 453
f 453 501 502
f 453 502 454
f 454 502 503
f 454 503 455
f 455 503 504
f 455 504 456
f 456 504 505
f 456 505 457
f 457 505 506
f 457 506 458
f 458 506 507
f 458 507 459
f 459 507 508
f 459 508 460
f 460 508 509
f 460 509 461
f 461 509 510
f 461 510 462
f 462 510 511
f 462 511 463
f 463 511 512
f 463 512 464
f 464 512 513
f 464 513 465
f 465 513 514
f 465 514 466
f 466 514 515
f 466 515 467
f 467 515 516
f 467 516 468
f 468 516 517
f 468 517 469
f 469 517 518
f 469 518 470
f 470 518 519
f 470 519 471
f 471 519 520
f 471 520 472
f 472 520 521
f 472 521 473
f 473 521 522
f 473 522 474
f 474 522 523
f 474 523 475
f 475 523 524
f 475 524 476
f 476 524 525
f 476 525 477
f 477 525 526
f 477 526 478
f 478 526 527
f 478 527 479
f 479 527 528
f 479 528 480
f 480 528 529
f 480 529 481
f 481 529 482
f 481 482 434
f 482 530 531
f 482 531 483
f 483 531 532
f 483 532 484
f 484 532 533
f 484 533 485
f 485 533 534
f 485 534 486
f 486 534 535
f 486 535 487
f 487 535 536
f 487 536 488
f 488 536 537
f 488 537 489
f 489 537 538
f 489 538 490
f 490 538 539
f 490 539 491
f 491 539 540
f 491 540 492
f 492 540 541
f 492 541 493
f 493 541 542
f 493 542 494
f 494 542 543
f 494 543 495
f 495 543 544
f 495 544 496
f 496 544 545
f 496 545 497
f 497 545 546
f 497 546 498
f 498 546 547
f 498 547 499
f 499 547 548
f 499 548 500
f 500 548 549
f 500 549 501
f 501 549 550
f 501 550 502
f 502 550 551
f 502 551 503
f 503 551 552
f 503 552 504
f 504 552 553
f 504 553 505
f 505 553 554
f 505 554 506
f 506 554 555
f 506 555 507
f 507 555 556
f 507 556 508
f 508 556 557
f 508 557 509
f 509 557 558
f 509 558 510
f 510 558 559
f 510 559 511
f 511 559 560
f 511 560 512
f 512 560 561
f 512 561 513
f 513 561 562
f 513 562 514
f 514 562 563
f 514 563 515
f 515 563 564
f 515 564 516
f 516 564 565
f 516 565 517
f 517 565 566
f 517 566 518
f 518 566 567
f 518 567 519
f 519 567 568
f 519 568 520
f 520 568 569
f 520 569 521
f 521 569 570
f 521 570 522
f 522 570 571
f 522 571 523
f 523 571 572
f 523 572 524
f 524 572 573
f 524 573 525
f 525 573 574
f 525 574 526
f 526 574 575
f 526 575 527
f 527 575 576
f 527 576 528
f 528 576 577
f 528 577 529
f 529 577 530
f 529 530 482
f 530 578 579
f 530 579 531
f 531 579 580
f 531 580 532
f 532 580 581
f 532 581 533
f 533 581 582
f 533 582 534
f 534 582 583
f 534 583 535
f 535 583 584
f 535 584 536
f 536 584 585
f 536 585 537
f 537 585 586
f 537 586 538
f 538 586 587
f 538 587 539
f 539 587 588
f 539 588 540
f 540 588 589
f 540 589 541
f 541 589 590
f 541 590 542
f 542 590 591
f 542 591 543
f 543 591 592
f 543 592 544
f 544 592 593
f 544 593 545
f 545 593 594
f 545 594 546
f 546 594 595
f 546 595 547
f 547 595 596
f 547 596 548
f 548 596 597
f 548 597 549
f 549 597 598
f 549 598 550
f 550 598 599
f 550 599 551
f 551 599 600
f 551 600 552
f 552 600 601
f 552 601 553
f 553 601 602
f 553 602 554
f 554 602 603
f 554 603 555
f 555 603 604
f 555 604 556
f 556 604 605
f 556 605 557
f 557 605 606
f 557 606 558
f 558 606 607
f 558 607 559
f 559 607 608
f 559 608 560
f 560 608 609
f 560 609 561
f 561 609 610
f 561 610 562
f 562 610 611
f 562 611 563
f 563 611 612
f 563 612 564
f 564 612 613
f 564 613 565
f 565 613 614
f 565 614 566
f 566 614 615
f 566 615 567
f 567 615 616
f 567 616 568
f 568 616 617
f 568 617 569
f 569 617 618
f 569 618 570
f 570 618 619
f 570 619 571
f 571 619 620
f 571 620 572
f 572 620 621
f 572 621 573
f 573 621 622
f 573 622 574
f 574 622 623
f 574 623 575
f 575 623 624
f 575 624 576
f 576 624 625
f 576 625 577
f 577 625 578
f 577 578 530
f 578 626 627
f 578 627 579
f 579 627 628
f 579 628 580
f 580 628 629
f 580 629 581
f 581 629 630
f 581 630 582
f 582 630 631
f 582 631 583
f 583 631 632
f 583 632 584
f 584 632 633
f 584 633 585
f 585 633 634
f 585 634 586
f 586 634 635
f 586 635 587
f 587 635 636
f 587 636 588
f 588 636 637
f 588 637 589
f 589 637 638
f 589 638 590
f 590 638 639
f 590 639 591
f 591 639 640
f 591 640 592
f 592 640 641
f 592 641 593
f 593 641 642
f 593 642 594
f 594 642 643
f 594 643 595
f 595 643 644
f 595 644 596
f 596 644 645
f 596 645 597
f 597 645 646
f 597 646 598
f 598 646 647
f 598 647 599
f 599 647 648
f 599 648 600
f 600 648 649
f 600 649 601
f 601 649 650
f 601 650 602
f 602 650 651
f 602 651 603
f 603 651 652
f 603 652 604
f 604 652 653
f 604 653 605
f 605 653 654
f 605 654 606
f 606 654 655
f 606 655 607
f 607 655 656
f 607 656 608
f 608 656 657
f 608 657 609
f 609 657 658
f 609 658 610
f 610 658 659
f 610 659 611
f 611 659 660
f 611 660 612
f 612 660 661
f 612 661 613
f 613 661 662
f 613 662 614
f 614 662 663
f 614 663 615
f 615 663 664
f 615 664 616
f 616 664 665
f 616 665 617
f 617 665 666
f 617 666 618
f 618 666 667
f 618 667 619
f 619 667 668
f 619 668 620
f 620 668 669
f 620 669 621
f 621 669 670
f 621 670 622
f 622 670 671
f 622 671 623
f 623 671 672
f 623 672 624
f 624 672 673
f 624 673 625
f 625 673 626
f 625 626 578
f 626 674 675
f 626 675 627
f 627 675 676
f 627 676 628
f 628 676 677
f 628 677 629
f 629 677 678
f 629 678 630
f 630 678 679
f 630 679 631
f 631 679 680
f 631 680 632
f 632 680 681
f 632 681 633
f 633 681 682
f 633 682 634
f 634 682 683
f 634 683 635
f 635 683 684
f 635 684 636
f 636 684 685
f 636 685 637
f 637 685 686
f 637 686 638
f 638 686 687
f 638 687 639
f 639 687 688
f 639 688 640
f 640 688 689
f 640 689 641
f 641 689 690
f 641 690 642
f 642 690 691
f 642 691 643
f 643 691 692
f 643 692 644
f 644 692 693
f 644 693 645
f 645 693 694
f 645 694 646
f 646 694 695
f 646 695 647
f 647 695 696
f 647 696 648
f 648 696 697
f 648 697 649
f 649 697 698
f 649 698 650
f 650 698 699
f 650 699 651
f 651 699 700
f 651 700 652
f 652 700 701
f 652 701 653
f 653 701 702
f 653 702 654
f 654 702 703
f 654 703 655
f 655 703 704
f 655 704 656
f 656 704 705
f 656 705 657
f 657 705 706
f 657 706 658
f 658 706 707
f 658 707 659
f 659 707 708
f 659 708 660
f 660 708 709
f 660 709 661
f 661 709 710
f 661 710 662
f 662 710 711
f 662 711 663
f 663 711 712
f 663 712 664
f 664 712 713
f 664 713 665
f 665 713 714
f 665 714 666
f 666 714 715
f 666 715 667
f 667 715 716
f 667 716 668
f 668 716 717
f 668 717 669
f 669 717 718
f 669 718 670
f 670 718 719
f 670 719 671
f 671 719 720
f 671 720 672
f 672 720 721
f 672 721 673
f 673 721 674
f 673 674 626
f 674 722 723
f 674 723 675
f 675 723 724
f 675 724 676
f 676 724 725
f 676 725 677
f 677 725 726
f 677 726 678
f 678 726 727
f 678 727 679
f 679 727 728
f 679 728 680
f 680 728 729
f 680 729 681
f 681 729 730
f 681 730 682
f 682 730 731
f 682 731 683
f 683 731 732
f 683 732 684
f 684 732 733
f 684 733 685
f 685 733 734
f 685 734 686
f 686 734 735
f 686 735 687
f 687 735 736
f 687 736 688
f 688 736 737
f 688 737 689
f 689 737 738
f 689 738 690
f 690 738 739
f 690 739 691
f 691 739 740
f 691 740 692
f 692 740 741
f 692 741 693
f 693 741 742
f 693 742 694
f 694 742 743
f 694 743 695
f 695 743 744
f 695 744 696
f 696 744 745
f 696 745 697
f 697 745 746
f 697 746 698
f 698 746 747
f 698 747 699
f 699 747 748
f 699 748 700
f 700 748 749
f 700 749 701
f 701 749 750
f 701 750 702
f 702 750 751
f 702 751 703
f 703 751 752
f 703 752 704
f 704 752 753
f 704 753 705
f 705 753 754
f 705 754 706
f 706 754 755
f 706 755 707
f 707 755 756
f 707 756 708
f 708 756 757
f 708 757 709
f 709 757 758
f 709 758 710
f 710 758 759
f 710 759 711
f 711 759 760
f 711 760 712
f 712 760 761
f 712 761 713
f 713 761 762
f 713 762 714
f 714 762 763
f 714 763 715
f 715 763 764
f 715 764 716
f 716 764 765
f 716 765 717
f 717 765 766
f 717 766 718
f 718 766 767
f 718 767 719
f 719 767 768
f 719 768 720
f 720 768 769
f 720 769 721
f 721 769 722
f 721 722 674
f 722 770 771
f 722 771 723
f 723 771 772
f 723 772 724
f 724 772 773
f 724 773 725
f 725 773 774
f 725 774 726
f 726 774 775
f 726 775 727
f 727 775 776
f 727 776 728
f 728 776 777
f 728 777 729
f 729 777 778
f 729 778 730
f 730 778 779
f 730 779 731
f 731 779 780
f 731 780 732
f 732 780 781
f 732 781 733
f 733 781 782
f 733 782 734
f 734 782 783
f 734 783 735
f 735 783 784
f 735 784 736
f 736 784 785
f 736 785 737
f 737 785 786
f 737 786 738
f 738 786 787
f 738 787 739
f 739 787 788
f 739 788 740
f 740 788 789
f 740 789 741
f 741 789 790
f 741 790 742
f 742 790 791
f 742 791 743
f 743 791 792
f 743 792 744
f 744 792 793
f 744 793 745
f 745 793 794
f 745 794 746
f 746 794 795
f 746 795 747
f 747 795 796
f 747 796 748
f 748 796 797
f 748 797 749
f 749 797 798
f 749 798 750
f 750 798 799
f 750 799 751
f 751 799 800
f 751 800 752
f 752 800 801
f 752 801 753
f 753 801 802
f 753 802 754
f 754 802 803
f 754 803 755
f 755 803 804
f 755 804 756
f 756 804 805
f 756 805 757
f 757 805 806
f 757 806 758
f 758 806 807
f 758 807 759
f 759 807 808
f 759 808 760
f 760 808 809
f 760 809 761
f 761 809 810
f 761 810 762
f 762 810 811
f 762 811 763
f 763 811 812
f 763 812 764
f 764 812 813
f 764 813 765
f 765 813 814
f 765 814 766
f 766 814 815
f 766 815 767
f 767 815 816
f 767 816 768
f 768 816 817
f 768 817 769
f 769 817 770
f 769 770 722
f 770 818 819
f 770 819 771
f 771 819 820
f 771 820 772
f 772 820 821
f 772 821 773
f 773 821 822
f 773 822 774
f 774 822 823
f 774 823 775
f 775 823 824
f 775 824 776
f 776 824 825
f 776 825 777
f 777 825 826
f 777 826 778
f 778 826 827
f 778 827 779
f 779 827 828
f 779 828 780
f 780 828 829
f 780 829 781
f 781 829 830
f 781 830 782
f 782 830 831
f 782 831 783
f 783 831 832
f 783 832 784
f 784 832 833
f 784 833 785
f 785 833 834
f 785 834 786
f 786 834 835
f 786 835 787
f 787 835 836
f 787 836 788
f 788 836 837
f 788 837 789
f 789 837 838
f 789 838 790
f 790 838 839
f 790 839 791
f 791 839 840
f 791 840 792
f 792 840 841
f 792 841 793
f 793 841 842
f 793 842 794
f 794 842 843
f 794 843 795
f 795 843 844
f 795 844 796
f 796 844 845
f 796 845 797
f 797 845 846
f 797 846 798
f 798 846 847
f 798 847 799
f 799 847 848
f 799 848 800
f 800 848 849
f 800 849 801
f 801 849 850
f 801 850 802
f 802 850 851
f 802 851 803
f 803 851 852
f 803 852 804
f 804 852 853
f 804 853 805
f 805 853 854
f 805 854 806
f 806 854 855
f 806 855 807
f 807 855 856
f 807 856 808
f 808 856 857
f 808 857 809
f 809 857 858
f 809 858 810
f 810 858 859
f 810 859 811
f 811 859 860
f 811 860 812
f 812 860 861
f 812 861 813
f 813 861 862
f 813 862 814
f 814 862 863
f 814 863 815
f 815 863 864
f 815 864 816
f 816 864 865
f 816 865 817
f 817 865 818
f 817 818 770
f 818 866 867
f 818 867 819
f 819 867 868
f 819 868 820
f 820 868 869
f 820 869 821
f 821 869 870
f 821 870 822
f 822 870 871
f 822 871 823
f 823 871 872
f 823 872 824
f 824 872 873
f 824 873 825
f 825 873 874
f 825 874 826
f 826 874 875
f 826 875 827
f 827 875 876
f 827 876 828
f 828 876 877
f 828 877 829
f 829 877 878
f 829 878 830
f 830 878 879
f 830 879 831
f 831 879 880
f 831 880 832
f 832 880 881
f 832 881 833
f 833 881 882
f 833 882 834
f 834 882 883
f 834 883 835
f 835 883 884
f 835 884 836
f 836 884 885
f 836 885 837
f 837 885 886
f 837 886 838
f 838 886 887
f 838 887 839
f 839 887 888
f 839 888 840
f 840 888 889
f 840 889 841
f 841 889 890
f 841 890 842
f 842 890 891
f 842 891 843
f 843 891 892
f 843 892 844
f 844 892 893
f 844 893 845
f 845 893 894
f 845 894 846
f 846 894 895
f 846 895 847
f 847 895 896
f 847 896 848
f 848 896 897
f 848 897 849
f 849 897 898
f 849 898 850
f 850 898 899
f 850 899 851
f 851 899 900
f 851 900 852
f 852 900 901
f 852 901 853
f 853 901 902
f 853 902 854
f 854 902 903
f 854 903 855
f 855 903 904
f 855 904 856
f 856 904 905
f 856 905 857
f 857 905 906
f 857 906 858
f 858 906 907
f 858 907 859
f 859 907 908
f 859 908 860
f 860 908 909
f 860 909 861
f 861 909 910
f 861 910 862
f 862 910 911
f 862 911 863
f 863 911 912
f 863 912 864
f 864 912 913
f 864 913 865
f 865 913 866
f 865 866 818
f 866 914 915
f 866 915 867
f 867 915 916
f 867 916 868
f 868 916 917
f 868 917 869
f 869 917 918
f 869 918 870
f 870 918 919
f 870 919 871
f 871 919 920
f 871 920 872
f 872 920 921
f 872 921 873
f 873 921 922
f 873 922 874
f 874 922 923
f 874 923 875
f 875 923 924
f 875 924 876
f 876 924 925
f 876 925 877
f 877 925 926
f 877 926 878
f 878 926 927
f 878 927 879
f 879 927 928
f 879 928 880
f 880 928 929
f 880 929 881
f 881 929 930
f 881 930 882
f 882 930 931
f 882 931 883
f 883 931 932
f 883 932 884
f 884 932 933
f 884 933 885
f 885 933 934
f 885 934 886
f 886 934 935
f 886 935 887
f 887 935 936
f 887 936 888
f 888 936 937
f 888 937 889
f 889 937 938
f 889 938 890
f 890 938 939
f 890 939 891
f 891 939 940
f 891 940 892
f 892 940 941
f 892 941 893
f 893 941 942
f 893 942 894
f 894 942 943
f 894 943 895
f 895 943 944
f 895 944 896
f 896 944 945
f 896 945 897
f 897 945 946
f 897 946 898
f 898 946 947
f 898 947 899
f 899 947 948
f 899 948 900
f 900 948 949
f 900 949 901
f 901 949 950
f 901 950 902
f 902 950 951
f 902 951 903
f 903 951 952
f 903 952 904
f 904 952 953
f 904 953 905
f 905 953 954
f 905 954 906
f 906 954 955
f 906 955 907
f 907 955 956
f 907 956 908
f 908 956 957
f 908 957 909
f 909 957 958
f 909 958 910
f 910 958 959
f 910 959 911
f 911 959 960
f 911 960 912
f 912 960 961
f 912 961 913
f 913 961 914
f 913 914 866
f 914 962 963
f 914 963 915
f 915 963 964
f 915 964 916
f 916 964 965
f 916 965 917
f 917 965 966
f 917 966 918
f 918 966 967
f 918 967 919
f 919 967 968
f 919 968 920
f 920 968 969
f 920 969 921
f 921 969 970
f 921 970 922
f 922 970 971
f 922 971 923
f 923 971 972
f 923 972 924
f 924 972 973
f 924 973 925
f 925 973 974
f 925 974 926
f 926 974 975
f 926 975 927
f 927 975 976
f 927 976 928
f 928 976 977
f 928 977 929
f 929 977 978
f 929 978 930
f 930 978 979
f 930 979 931
f 931 979 980
f 931 980 932
f 932 980 981
f 932 981 933
f 933 981 982
f 933 982 934
f 934 982 983
f 934 983 935
f 935 983 984
f 935 984 936
f 936 984 985
f 936 985 937
f 937 985 986
f 937 986 938
f 938 986 987
f 938 987 939
f 939 987 988
f 939 988 940
f 940 988 989
f 940 989 941
f 941 989 990
f 941 990 942
f 942 990 991
f 942 991 943
f 943 991 992
f 943 992 944
f 944 992 993
f 944 993 945
f 945 993 994
f 945 994 946
f 946 994 995
f 946 995 947
f 947 995 996
f 947 996 948
f 948 996 997
f 948 997 949
f 949 997 998
f 949 998 950
f 950 998 999
f 950 999 951
f 951 999 1000
f 951 1000 952
f 952 1000 1001
f 952 1001 953
f 953 1001 1002
f 953 1002 954
f 954 1002 1003
f 954 1003 955
f 955 1003 1004
f 955 1004 956
f 956 1004 1005
f 956 1005 957
f 957 1005 1006
f 957 1006 958
f 958 1006 1007
f 958 1007 959
f 959 1007 1008
f 959 1008 960
f 960 1008 1009
f 960 1009 961
f 961 1009 962
f 961 962 914
f 962 1010 1011
f 962 1011 963
f 963 1011 1012
f 963 1012 964
f 964 1012 1013
f 964 1013 965
f 965 1013 1014
f 965 1014 966
f 966 1014 1015
f 966 1015 967
f 967 1015 1016
f 967 1016 968
f 968 1016 1017
f 968 1017 969
f 969 1017 1018
f 969 1018 970
f 970 1018 1019
f 970 1019 971
f 971 1019 1020
f 971 1020 972
f 972 1020 1021
f 972 1021 973
f 973 1021 1022
f 973 1022 974
f 974 1022 1023
f 974 1023 975
f 975 1023 1024
f 975 1024 976
f 976 1024 1025
f 976 1025 977
f 977 1025 1026
f 977 1026 978
f 978 1026 1027
f 978 1027 979
f 979 1027 1028
f 979 1028 980
f 980 1028 1029
f 980 1029 981
f 981 1029 1030
f 981 1030 982
f 982 1030 1031
f 982 1031 983
f 983 1031 1032
f 983 1032 984
f 984 1032 1033
f 984 1033 985
f 985 1033 1034
f 985 1034 986
f 986 1034 1035
f 986 1035 987
f 987 1035 1036
f 987 1036 988
f 988 1036 1037
f 988 1037 989
f 989 1037 1038
f 989 1038 990
f 990 1038 1039
f 990 1039 991
f 991 1039 1040
f 991 1040 992
f 992 1040 1041
f 992 1041 993
f 993 1041 1042
f 993 1042 994
f 994 1042 1043
f 994 1043 995
f 995 1043 1044
f 995 1044 996
f 996 1044 1045
f 996 1045 997
f 997 1045 1046
f 997 1046 998
f 998 1046 1047
f 998 1047 999
f 999 1047 1048
f 999 1048 1000
f 1000 1048 1049
f 1000 1049 1001
f 1001 1049 1050
f 1001 1050 1002
f 1002 1050 1051
f 1002 1051 1003
f 1003 1051 1052
f 1003 1052 1004
f 1004 1052 1053
f 1004 1053 1005
f 1005 1053 1054
f 1005 1054 1006
f 1006 1054 1055
f 1006 1055 1007
f 1007 1055 1056
f 1007 1056 1008
f 1008 1056 1057
f 1008 1057 1009
f 1009 1057 1010
f 1009 1010 962
f 1010 1058 1059
f 1010 1059 1011
f 1011 1059 1060
f 1011 1060 1012
f 1012 1060 1061
f 1012 1061 1013
f 1013 1061 1062
f 1013 1062 1014
f 1014 1062 1063
f 1014 1063 1015
f 1015 1063 1064
f 1015 1064 1016
f 1016 1064 1065
f 1016 1065 1017
f 1017 1065 1066
f 1017 1066 1018
f 1018 1066 1067
f 1018 1067 1019
f 1019 1067 1068
f 1019 1068 1020
f 1020 1068 1069
f 1020 1069 1021
f 1021 1069 1070
f 1021 1070 1022
f 1022 1070 1071
f 1022 1071 1023
f 1023 1071 1072
f 1023 1072 1024
f 1024 1072 1073
f 1024 1073 1025
f 1025 1073 1074
f 1025 1074 1026
f 1026 1074 1075
f 1026 1075 1027
f 1027 1075 1076
f 1027 1076 1028
f 1028 1076 1077
f 1028 1077 1029
f 1029 1077 1078
f 1029 1078 1030
f 1030 1078 1079
f 1030 1079 1031
f 1031 1079 1080
f 1031 1080 1032
f 1032 1080 1081
f 1032 1081 1033
f 1033 1081 1082
f 1033 1082 1034
f 1034 1082 1083
f 1034 1083 1035
f 1035 1083 1084
f 1035 1084 1036
f 1036 1084 1085
f 1036 1085 1037
f 1037 1085 1086
f 1037 1086 1038
f 1038 1086 1087
f 1038 1087 1039
f 1039 1087 1088
f 1039 1088 1040
f 1040 1088 1089
f 1040 1089 1041
f 1041 1089 1090
f 1041 1090 1042
f 1042 1090 1091
f 1042 1091 1043
f 1043 1091 1092
f 1043 1092 1044
f 1044 1092 1093
f 1044 1093 1045
f 1045 1093 1094
f 1045 1094 1046
f 1046 1094 1095
f 1046 1095 1047
f 1047 1095 1096
f 1047 1096 1048
f 1048 1096 1097
f 1048 1097 1049
f 1049 1097 1098
f 1049 1098 1050
f 1050 1098 1099
f 1050 1099 1051
f 1051 1099 1100
f 1051 1100 1052
f 1052 1100 1101
f 1052 1101 1053
f 1053 1101 1102
f 1053 1102 1054
f 1054 1102 1103
f 1054 1103 1055
f 1055 1103 1104
f 1055 1104 1056
f 1056 1104 1105
f 1056 1105 1057
f 1057 1105 1058
f 1057 1058 1010
f 1106 1059 1058
f 1106 1060 1059
f 1106 1061 1060
f 1106 1062 1061
f 1106 1063 1062
f 1106 1064 1063
f 1106 1065 1064
f 1106 1066 1065
f 1106 1067 1066
f 1106 1068 1067
f 1106 1069 1068
f 1106 1070 1069
f 1106 1071 1070
f 1106 1072 1071
f 1106 1073 1072
f 1106 1074 1073
f 1106 1075 1074
f 1106 1076 1075
f 1106 1077 1076
f 1106 1078 1077
f 1106 1079 1078
f 1106 1080 1079
f 1106 1081 1080
f 1106 1082 1081
f 1106 1083 1082
f 1106 1084 1083
f 1106 1085 1084
f 1106 1086 1085
f 1106 1087 1086
f 1106 1088 1087
f 1106 1089 1088
f 1106 1090 1089
f 1106 1091 1090
f 1106 1092 1091
f 1106 1093 1092
f 1106 1094 1093
f 1106 1095 1094
f 1106 1096 1095
f 1106 1097 1096
f 1106 1098 1097
f 1106 1099 1098
f 1106 1100 1099
f 1106 1101 1100
f 1106 1102 1101
f 1106 1103 1102
f 1106 1104 1103
f 1106 1105 1104
f 1106 1058 1105
